<?xml version="1.0" encoding="UTF-8" standalone="no"?><!DOCTYPE svg PUBLIC "-//W3C//DTD SVG 1.1//EN" "http://www.w3.org/Graphics/SVG/1.1/DTD/svg11.dtd"><!-- Generated by graphviz version 2.40.1 (20161225.0304)
 --><!-- Title: %0 Pages: 1 --><svg xmlns="http://www.w3.org/2000/svg" xmlns:xlink="http://www.w3.org/1999/xlink" width="1293pt" height="222pt" viewBox="0.00 0.00 1293.31 221.60">
<g id="graph0" class="graph" transform="scale(1 1) rotate(0) translate(4 217.6)">
<title>%0</title>
<polygon fill="#ffffff" stroke="transparent" points="-4,4 -4,-217.6 1289.3136,-217.6 1289.3136,4 -4,4"/>
<!-- 0 -->
<g id="node1" class="node">
<title>0</title>
<ellipse fill="none" stroke="#000000" cx="60.6568" cy="-195.6" rx="60.814" ry="18"/>
<text text-anchor="middle" x="60.6568" y="-191.4" font-family="Times,serif" font-size="14.00" fill="#000000">0:[bottom,T]</text>
</g>
<!-- 5 -->
<g id="node6" class="node">
<title>5</title>
<ellipse fill="none" stroke="#000000" cx="60.6568" cy="-106.8" rx="60.814" ry="18"/>
<text text-anchor="middle" x="60.6568" y="-102.6" font-family="Times,serif" font-size="14.00" fill="#000000">5:[bottom,T]</text>
</g>
<!-- 0&#45;&gt;5 -->
<g id="edge3" class="edge">
<title>0-&gt;5</title>
<path fill="none" stroke="#000000" d="M60.6568,-177.2006C60.6568,-165.0949 60.6568,-149.0076 60.6568,-135.2674"/>
<polygon fill="#000000" stroke="#000000" points="64.1569,-134.872 60.6568,-124.872 57.1569,-134.8721 64.1569,-134.872"/>
<text text-anchor="middle" x="79.7073" y="-147" font-family="Times,serif" font-size="14.00" fill="#000000">2:store</text>
</g>
<!-- 1 -->
<g id="node2" class="node">
<title>1</title>
<ellipse fill="none" stroke="#000000" cx="495.6568" cy="-106.8" rx="60.814" ry="18"/>
<text text-anchor="middle" x="495.6568" y="-102.6" font-family="Times,serif" font-size="14.00" fill="#000000">1:[bottom,T]</text>
</g>
<!-- 13 -->
<g id="node14" class="node">
<title>13</title>
<ellipse fill="none" stroke="#000000" cx="657.6568" cy="-18" rx="111.7002" ry="18"/>
<text text-anchor="middle" x="657.6568" y="-13.8" font-family="Times,serif" font-size="14.00" fill="#000000">13:[bottom,weak_integer]</text>
</g>
<!-- 1&#45;&gt;13 -->
<g id="edge6" class="edge">
<title>1-&gt;13</title>
<path fill="none" stroke="#000000" d="M507.3912,-88.8231C515.7189,-77.3656 527.8508,-63.0283 541.713,-54 553.2958,-46.4562 566.5532,-40.4149 579.867,-35.6014"/>
<polygon fill="#000000" stroke="#000000" points="581.2075,-38.8425 589.5484,-32.3095 578.954,-32.2152 581.2075,-38.8425"/>
<text text-anchor="middle" x="569.1287" y="-58.2" font-family="Times,serif" font-size="14.00" fill="#000000">5:σ64@0</text>
</g>
<!-- 1&#45;&gt;13 -->
<g id="edge11" class="edge">
<title>1-&gt;13</title>
<path fill="none" stroke="#000000" d="M540.6227,-94.3964C558.1477,-88.5676 577.9863,-80.6948 594.6568,-70.8 604.3661,-65.037 605.1098,-61.3121 613.713,-54 618.2383,-50.1538 623.0661,-46.1251 627.8038,-42.2126"/>
<polygon fill="#000000" stroke="#000000" points="630.1166,-44.8423 635.6226,-35.7905 625.6736,-39.433 630.1166,-44.8423"/>
<text text-anchor="middle" x="644.6287" y="-58.2" font-family="Times,serif" font-size="14.00" fill="#000000">10:σ64@8</text>
</g>
<!-- 2 -->
<g id="node3" class="node">
<title>2</title>
<ellipse fill="none" stroke="#000000" cx="1224.6568" cy="-195.6" rx="60.814" ry="18"/>
<text text-anchor="middle" x="1224.6568" y="-191.4" font-family="Times,serif" font-size="14.00" fill="#000000">2:[bottom,T]</text>
</g>
<!-- 9 -->
<g id="node10" class="node">
<title>9</title>
<ellipse fill="none" stroke="#000000" cx="1224.6568" cy="-106.8" rx="60.814" ry="18"/>
<text text-anchor="middle" x="1224.6568" y="-102.6" font-family="Times,serif" font-size="14.00" fill="#000000">9:[bottom,T]</text>
</g>
<!-- 2&#45;&gt;9 -->
<g id="edge7" class="edge">
<title>2-&gt;9</title>
<path fill="none" stroke="#000000" d="M1224.6568,-177.2006C1224.6568,-165.0949 1224.6568,-149.0076 1224.6568,-135.2674"/>
<polygon fill="#000000" stroke="#000000" points="1228.1569,-134.872 1224.6568,-124.872 1221.1569,-134.8721 1228.1569,-134.872"/>
<text text-anchor="middle" x="1242.1547" y="-147" font-family="Times,serif" font-size="14.00" fill="#000000">6:load</text>
</g>
<!-- 3 -->
<g id="node4" class="node">
<title>3</title>
<ellipse fill="none" stroke="#000000" cx="638.6568" cy="-106.8" rx="60.814" ry="18"/>
<text text-anchor="middle" x="638.6568" y="-102.6" font-family="Times,serif" font-size="14.00" fill="#000000">3:[bottom,T]</text>
</g>
<!-- 3&#45;&gt;13 -->
<g id="edge20" class="edge">
<title>3-&gt;13</title>
<path fill="none" stroke="#000000" d="M662.798,-90.2341C668.7799,-84.8031 674.4046,-78.228 677.6568,-70.8 681.2559,-62.5797 679.7232,-53.4865 676.2689,-45.196"/>
<polygon fill="#000000" stroke="#000000" points="679.3789,-43.5902 671.7233,-36.266 673.1406,-46.7656 679.3789,-43.5902"/>
<text text-anchor="middle" x="710.6287" y="-58.2" font-family="Times,serif" font-size="14.00" fill="#000000">19:σ64@0</text>
</g>
<!-- 4 -->
<g id="node5" class="node">
<title>4</title>
<ellipse fill="none" stroke="#000000" cx="199.6568" cy="-106.8" rx="60.814" ry="18"/>
<text text-anchor="middle" x="199.6568" y="-102.6" font-family="Times,serif" font-size="14.00" fill="#000000">4:[bottom,T]</text>
</g>
<!-- 12 -->
<g id="node13" class="node">
<title>12</title>
<ellipse fill="none" stroke="#000000" cx="199.6568" cy="-18" rx="65.4705" ry="18"/>
<text text-anchor="middle" x="199.6568" y="-13.8" font-family="Times,serif" font-size="14.00" fill="#000000">12:[bottom,T]</text>
</g>
<!-- 4&#45;&gt;12 -->
<g id="edge2" class="edge">
<title>4-&gt;12</title>
<path fill="none" stroke="#000000" d="M199.6568,-88.4006C199.6568,-76.2949 199.6568,-60.2076 199.6568,-46.4674"/>
<polygon fill="#000000" stroke="#000000" points="203.1569,-46.072 199.6568,-36.072 196.1569,-46.0721 203.1569,-46.072"/>
<text text-anchor="middle" x="226.1287" y="-58.2" font-family="Times,serif" font-size="14.00" fill="#000000">1:σ64@0</text>
</g>
<!-- 5&#45;&gt;12 -->
<g id="edge13" class="edge">
<title>5-&gt;12</title>
<path fill="none" stroke="#000000" d="M83.2468,-90.0171C97.9402,-79.3252 117.6583,-65.3927 135.713,-54 143.7044,-48.9574 152.4328,-43.8147 160.8004,-39.0533"/>
<polygon fill="#000000" stroke="#000000" points="162.6837,-42.0098 169.6865,-34.0592 159.2541,-35.9075 162.6837,-42.0098"/>
<text text-anchor="middle" x="166.6287" y="-58.2" font-family="Times,serif" font-size="14.00" fill="#000000">12:σ64@0</text>
</g>
<!-- 6 -->
<g id="node7" class="node">
<title>6</title>
<ellipse fill="none" stroke="#000000" cx="1224.6568" cy="-18" rx="60.814" ry="18"/>
<text text-anchor="middle" x="1224.6568" y="-13.8" font-family="Times,serif" font-size="14.00" fill="#000000">6:[bottom,T]</text>
</g>
<!-- 7 -->
<g id="node8" class="node">
<title>7</title>
<ellipse fill="none" stroke="#000000" cx="1080.6568" cy="-18" rx="60.814" ry="18"/>
<text text-anchor="middle" x="1080.6568" y="-13.8" font-family="Times,serif" font-size="14.00" fill="#000000">7:[bottom,T]</text>
</g>
<!-- 8 -->
<g id="node9" class="node">
<title>8</title>
<ellipse fill="none" stroke="#000000" cx="201.6568" cy="-195.6" rx="60.814" ry="18"/>
<text text-anchor="middle" x="201.6568" y="-191.4" font-family="Times,serif" font-size="14.00" fill="#000000">8:[bottom,T]</text>
</g>
<!-- 8&#45;&gt;4 -->
<g id="edge1" class="edge">
<title>8-&gt;4</title>
<path fill="none" stroke="#000000" d="M168.1777,-180.5465C160.0036,-175.1683 152.286,-168.2423 147.661,-159.6 141.4085,-147.9166 148.6044,-137.0874 159.4391,-128.3164"/>
<polygon fill="#000000" stroke="#000000" points="161.736,-130.9766 167.8313,-122.3106 157.6623,-125.284 161.736,-130.9766"/>
<text text-anchor="middle" x="166.1547" y="-147" font-family="Times,serif" font-size="14.00" fill="#000000">0:load</text>
</g>
<!-- 8&#45;&gt;4 -->
<g id="edge16" class="edge">
<title>8-&gt;4</title>
<path fill="none" stroke="#000000" d="M201.2424,-177.2006C200.9697,-165.0949 200.6074,-149.0076 200.2979,-135.2674"/>
<polygon fill="#000000" stroke="#000000" points="203.7882,-134.7906 200.0638,-124.872 196.79,-134.9483 203.7882,-134.7906"/>
<text text-anchor="middle" x="224.2073" y="-147" font-family="Times,serif" font-size="14.00" fill="#000000">15:store</text>
</g>
<!-- 9&#45;&gt;6 -->
<g id="edge8" class="edge">
<title>9-&gt;6</title>
<path fill="none" stroke="#000000" d="M1224.6568,-88.4006C1224.6568,-76.2949 1224.6568,-60.2076 1224.6568,-46.4674"/>
<polygon fill="#000000" stroke="#000000" points="1228.1569,-46.072 1224.6568,-36.072 1221.1569,-46.0721 1228.1569,-46.072"/>
<text text-anchor="middle" x="1251.1287" y="-58.2" font-family="Times,serif" font-size="14.00" fill="#000000">7:σ64@0</text>
</g>
<!-- 10 -->
<g id="node11" class="node">
<title>10</title>
<ellipse fill="none" stroke="#000000" cx="638.6568" cy="-195.6" rx="65.4705" ry="18"/>
<text text-anchor="middle" x="638.6568" y="-191.4" font-family="Times,serif" font-size="14.00" fill="#000000">10:[bottom,T]</text>
</g>
<!-- 10&#45;&gt;3 -->
<g id="edge4" class="edge">
<title>10-&gt;3</title>
<path fill="none" stroke="#000000" d="M621.232,-177.9518C616.9365,-172.5037 612.9219,-166.1903 610.661,-159.6 608.238,-152.5374 608.238,-149.8626 610.661,-142.8 611.8894,-139.2193 613.6355,-135.7204 615.6631,-132.3976"/>
<polygon fill="#000000" stroke="#000000" points="618.6263,-134.2686 621.5253,-124.0781 612.9042,-130.2365 618.6263,-134.2686"/>
<text text-anchor="middle" x="629.1547" y="-147" font-family="Times,serif" font-size="14.00" fill="#000000">3:load</text>
</g>
<!-- 10&#45;&gt;3 -->
<g id="edge18" class="edge">
<title>10-&gt;3</title>
<path fill="none" stroke="#000000" d="M642.903,-177.3852C644.0332,-171.72 645.0952,-165.4307 645.6568,-159.6 646.3727,-152.1677 646.3727,-150.2323 645.6568,-142.8 645.4111,-140.2491 645.0696,-137.6104 644.6685,-134.9745"/>
<polygon fill="#000000" stroke="#000000" points="648.0948,-134.2503 642.903,-125.0148 641.2023,-135.4722 648.0948,-134.2503"/>
<text text-anchor="middle" x="669.2073" y="-147" font-family="Times,serif" font-size="14.00" fill="#000000">17:store</text>
</g>
<!-- 11 -->
<g id="node12" class="node">
<title>11</title>
<ellipse fill="none" stroke="#000000" cx="345.6568" cy="-195.6" rx="65.4705" ry="18"/>
<text text-anchor="middle" x="345.6568" y="-191.4" font-family="Times,serif" font-size="14.00" fill="#000000">11:[bottom,T]</text>
</g>
<!-- 14 -->
<g id="node15" class="node">
<title>14</title>
<ellipse fill="none" stroke="#000000" cx="343.6568" cy="-106.8" rx="65.4705" ry="18"/>
<text text-anchor="middle" x="343.6568" y="-102.6" font-family="Times,serif" font-size="14.00" fill="#000000">14:[bottom,T]</text>
</g>
<!-- 11&#45;&gt;14 -->
<g id="edge14" class="edge">
<title>11-&gt;14</title>
<path fill="none" stroke="#000000" d="M305.1306,-181.2021C295.8152,-175.8967 287.0668,-168.8434 281.661,-159.6 274.1547,-146.765 283.2796,-135.5644 296.6375,-126.8215"/>
<polygon fill="#000000" stroke="#000000" points="298.5252,-129.7722 305.3908,-121.7029 294.9916,-123.7295 298.5252,-129.7722"/>
<text text-anchor="middle" x="303.6547" y="-147" font-family="Times,serif" font-size="14.00" fill="#000000">13:load</text>
</g>
<!-- 11&#45;&gt;14 -->
<g id="edge17" class="edge">
<title>11-&gt;14</title>
<path fill="none" stroke="#000000" d="M345.2424,-177.2006C344.9697,-165.0949 344.6074,-149.0076 344.2979,-135.2674"/>
<polygon fill="#000000" stroke="#000000" points="347.7882,-134.7906 344.0638,-124.872 340.79,-134.9483 347.7882,-134.7906"/>
<text text-anchor="middle" x="368.2073" y="-147" font-family="Times,serif" font-size="14.00" fill="#000000">16:store</text>
</g>
<!-- 13&#45;&gt;1 -->
<g id="edge5" class="edge">
<title>13-&gt;1</title>
<path fill="none" stroke="#000000" d="M560.424,-26.9343C499.9186,-33.5048 431.869,-43.1521 422.5558,-54 410.4402,-68.112 425.3136,-80.4974 444.7353,-89.7194"/>
<polygon fill="#000000" stroke="#000000" points="443.3338,-92.9265 453.8982,-93.7288 446.1399,-86.5136 443.3338,-92.9265"/>
<text text-anchor="middle" x="441.7073" y="-58.2" font-family="Times,serif" font-size="14.00" fill="#000000">4:store</text>
</g>
<!-- 13&#45;&gt;1 -->
<g id="edge9" class="edge">
<title>13-&gt;1</title>
<path fill="none" stroke="#000000" d="M561.5317,-27.2981C527.5364,-32.7329 495.1136,-41.1482 484.661,-54 478.9089,-61.0723 479.1224,-70.402 481.5958,-79.2492"/>
<polygon fill="#000000" stroke="#000000" points="478.4064,-80.7163 485.1512,-88.8869 484.9738,-78.2936 478.4064,-80.7163"/>
<text text-anchor="middle" x="503.1547" y="-58.2" font-family="Times,serif" font-size="14.00" fill="#000000">8:load</text>
</g>
<!-- 14&#45;&gt;12 -->
<g id="edge15" class="edge">
<title>14-&gt;12</title>
<path fill="none" stroke="#000000" d="M316.909,-90.3055C293.9177,-76.1276 260.5738,-55.5655 235.3164,-39.9901"/>
<polygon fill="#000000" stroke="#000000" points="237.0989,-36.9773 226.75,-34.7075 233.4246,-42.9355 237.0989,-36.9773"/>
<text text-anchor="middle" x="314.6287" y="-58.2" font-family="Times,serif" font-size="14.00" fill="#000000">14:σ64@0</text>
</g>
<!-- 15 -->
<g id="node16" class="node">
<title>15</title>
<ellipse fill="none" stroke="#000000" cx="782.6568" cy="-106.8" rx="65.4705" ry="18"/>
<text text-anchor="middle" x="782.6568" y="-102.6" font-family="Times,serif" font-size="14.00" fill="#000000">15:[bottom,T]</text>
</g>
<!-- 15&#45;&gt;13 -->
<g id="edge21" class="edge">
<title>15-&gt;13</title>
<path fill="none" stroke="#000000" d="M773.2255,-88.9063C766.5245,-77.6296 756.6107,-63.4639 744.6568,-54 736.8711,-47.8361 727.8813,-42.5703 718.6973,-38.1236"/>
<polygon fill="#000000" stroke="#000000" points="720.0388,-34.8889 709.4859,-33.9469 717.148,-41.2642 720.0388,-34.8889"/>
<text text-anchor="middle" x="786.5474" y="-58.2" font-family="Times,serif" font-size="14.00" fill="#000000">20:out_0</text>
</g>
<!-- 16 -->
<g id="node17" class="node">
<title>16</title>
<ellipse fill="none" stroke="#000000" cx="1080.6568" cy="-106.8" rx="65.4705" ry="18"/>
<text text-anchor="middle" x="1080.6568" y="-102.6" font-family="Times,serif" font-size="14.00" fill="#000000">16:[bottom,T]</text>
</g>
<!-- 16&#45;&gt;7 -->
<g id="edge12" class="edge">
<title>16-&gt;7</title>
<path fill="none" stroke="#000000" d="M1080.6568,-88.4006C1080.6568,-76.2949 1080.6568,-60.2076 1080.6568,-46.4674"/>
<polygon fill="#000000" stroke="#000000" points="1084.1569,-46.072 1080.6568,-36.072 1077.1569,-46.0721 1084.1569,-46.072"/>
<text text-anchor="middle" x="1105.5474" y="-58.2" font-family="Times,serif" font-size="14.00" fill="#000000">11:out_0</text>
</g>
<!-- 16&#45;&gt;13 -->
<g id="edge10" class="edge">
<title>16-&gt;13</title>
<path fill="none" stroke="#000000" d="M1041.1066,-92.3415C1007.3775,-80.5035 957.3873,-64.1145 912.6568,-54 863.7003,-42.93 808.6434,-34.6459 762.251,-28.8333"/>
<polygon fill="#000000" stroke="#000000" points="762.5375,-25.3422 752.1847,-27.5935 761.6818,-32.2897 762.5375,-25.3422"/>
<text text-anchor="middle" x="991.5474" y="-58.2" font-family="Times,serif" font-size="14.00" fill="#000000">9:in_0</text>
</g>
<!-- 17 -->
<g id="node18" class="node">
<title>17</title>
<ellipse fill="none" stroke="#000000" cx="931.6568" cy="-106.8" rx="65.4705" ry="18"/>
<text text-anchor="middle" x="931.6568" y="-102.6" font-family="Times,serif" font-size="14.00" fill="#000000">17:[bottom,T]</text>
</g>
<!-- 17&#45;&gt;13 -->
<g id="edge19" class="edge">
<title>17-&gt;13</title>
<path fill="none" stroke="#000000" d="M900.8447,-90.6929C877.861,-79.1964 845.4264,-64.0502 815.6568,-54 791.8777,-45.9722 765.4848,-39.1677 741.1875,-33.7088"/>
<polygon fill="#000000" stroke="#000000" points="741.7946,-30.2588 731.2763,-31.5294 740.2912,-37.0955 741.7946,-30.2588"/>
<text text-anchor="middle" x="883.5474" y="-58.2" font-family="Times,serif" font-size="14.00" fill="#000000">18:out_0</text>
</g>
</g>
</svg>